<?xml version="1.0" encoding="UTF-8" standalone="no"?>
<!-- Created with Inkscape (http://www.inkscape.org/) -->

<svg
   version="1.1"
   id="svg1"
   width="452"
   height="453"
   viewBox="0 0 452 453"
   xmlns="http://www.w3.org/2000/svg"
   xmlns:svg="http://www.w3.org/2000/svg">
  <defs
     id="defs1" />
  <g
     id="g1">
    <path
       style="fill:#000000"
       d="m 155.3398,387.1567 c -13.62901,-10.82283 -21.22184,-23.29475 -24.83706,-40.79717 -1.94186,-9.40112 -1.81984,-21.74549 0.42364,-42.85953 l 1.80635,-17 -4.94848,-8.67691 C 120.8918,265.73753 118.7745,258.61345 118.62351,247 c -0.1278,-9.82959 0.95076,-19 2.23465,-19 0.40459,0 1.24807,2.99168 1.8744,6.64818 1.51756,8.85947 6.21857,18.10492 12.84507,25.26232 5.62297,6.07349 19.61739,16.0895 22.48032,16.0895 1.6704,0 21.3154,-14.31337 23.84115,-17.37069 1.08599,-1.31453 1.26583,-3.88124 0.80358,-11.46868 -1.29109,-21.19231 -6.19354,-27.97334 -36.76189,-50.84878 -16.96195,-12.69325 -21.40638,-16.92254 -27.45705,-26.1279 -2.75397,-4.18984 -2.7879,-4.39903 -1.16033,-7.15429 1.38202,-2.33957 1.67659,-5.66969 1.67659,-18.95382 0,-14.94325 -0.18438,-16.56879 -2.53459,-22.34571 -5.64387,-13.87284 -6.82369,-25.142338 -4.02503,-38.446686 C 114.16946,75.06365 118.88063,62 120.11586,62 c 0.48628,0 0.89195,2.8125 0.9015,6.25 0.0727,26.184751 16.82612,49.19897 46.48264,63.8535 12.77331,6.31183 26.49885,9.8418 41.25,10.60877 6.1875,0.32172 11.25,0.90779 11.25,1.30239 0,0.39459 -3.31282,1.9257 -7.36183,3.40245 -11.25367,4.10445 -15.41729,10.17013 -11.15655,16.25319 1.21271,1.73138 1.2445,2.31211 0.17518,3.19957 -3.72851,3.09439 -31.24303,13.87723 -32.41639,12.70387 -0.30464,-0.30463 0.66447,-1.68301 2.15357,-3.06306 4.84462,-4.48985 7.04466,-12.95405 4.56926,-17.57936 C 175.14965,157.4111 143.33214,141 141.19837,141 c -0.98824,0 0.89244,19.28114 2.17969,22.34669 2.3386,5.5693 9.7129,12.29017 27.62194,25.1744 18.28882,13.15744 26.63615,20.43701 30.62671,26.70904 2.36863,3.7228 2.37329,3.79205 2.37329,35.25 C 204,268.09591 203.60961,282 203.11501,282 c -0.48674,0 -1.62212,-1.125 -2.52305,-2.5 -0.90094,-1.375 -2.42941,-2.5 -3.39661,-2.5 -5.32888,0 -35.93856,21.92856 -40.87813,29.2848 -7.1911,10.70933 -10.7823,25.40478 -9.94977,40.7152 0.81818,15.04658 4.36332,26.35209 11.71613,37.36302 2.15403,3.22569 3.91642,6.03861 3.91642,6.25093 0,1.17952 -2.37124,-0.0514 -6.6602,-3.45725 z M 291,390.61395 c 0,-0.21232 1.76239,-3.02524 3.91642,-6.25093 7.35281,-11.01093 10.89795,-22.31644 11.71613,-37.36302 0.83253,-15.31042 -2.75867,-30.00587 -9.94977,-40.7152 C 291.74321,298.92856 261.13353,277 255.80465,277 c -0.9672,0 -2.49567,1.125 -3.39661,2.5 -0.90093,1.375 -2.03631,2.5 -2.52305,2.5 C 249.38191,282 249,257.14626 249,224.40773 c 0,-56.07808 0.0526,-57.65912 2,-60.13486 4.99045,-6.34433 1.04588,-12.59435 -10.63817,-16.85576 C 236.31282,145.94036 233,144.40925 233,144.01466 c 0,-0.3946 5.0625,-0.98067 11.25,-1.30239 14.75115,-0.76697 28.47669,-4.29694 41.25,-10.60877 29.65652,-14.65453 46.40989,-37.668749 46.48264,-63.8535 0.01,-3.4375 0.41522,-6.25 0.9015,-6.25 1.23523,0 5.9464,13.06365 7.67548,21.283444 2.79866,13.304348 1.61884,24.573846 -4.02503,38.446686 -2.35021,5.77692 -2.53459,7.40246 -2.53459,22.34571 0,13.28413 0.29457,16.61425 1.67659,18.95382 1.62757,2.75526 1.59364,2.96445 -1.16033,7.15429 -5.56828,8.47147 -10.00384,13.05304 -19.73064,20.38013 l -9.86386,7.43035 4.2961,2.75278 c 12.10173,7.75436 22.2202,21.65797 24.77491,34.04279 2.73424,13.2551 -0.31184,28.18982 -8.77702,43.03309 l -4.94848,8.67691 1.80635,17 c 2.24348,21.11404 2.3655,33.45841 0.42364,42.85953 -2.78452,13.48073 -7.69925,23.54227 -15.83182,32.41125 C 300.2871,385.72669 291,392.74779 291,390.61395 Z m 8.24139,-119.44093 C 308.90119,260.84591 312.90353,251.37701 312.41767,240 311.9996,230.21039 311.5547,227.5835 309.06107,220.18129 306.83041,213.55966 300.59518,203 298.91593,203 c -2.2487,0 -15.23262,11.63557 -19.8214,17.76299 -6.05777,8.08897 -8.02839,14.01695 -8.79431,26.45489 -0.46443,7.54181 -0.28513,10.0971 0.80068,11.41143 1.68529,2.03998 21.91102,17.37069 22.91705,17.37069 0.3896,0 2.74015,-2.17214 5.22344,-4.82698 z m -7.70727,-89.70524 c 10.94484,-8.069 16.47155,-13.72231 18.41676,-18.83857 C 311.02628,159.80068 312.635,141 311.80163,141 c -2.13377,0 -33.95128,16.4111 -34.76487,17.93132 -2.4754,4.62531 -0.27536,13.08951 4.56926,17.57936 1.4891,1.38005 2.46445,2.75219 2.16744,3.0492 -0.29701,0.29701 -3.27835,-0.38246 -6.62519,-1.50993 C 273.80142,176.92248 270.8239,176 270.53155,176 270.2392,176 270,180.76333 270,186.58517 v 10.58517 l 5.25,-3.78386 c 2.8875,-2.08113 10.21535,-7.44454 16.28412,-11.9187 z"
       id="path1" />
  </g>
</svg>
